# xmcd
#
# Track frame offsets: 
#        150
#        23144
#        41967
#        60456
#        81385
#        105111
#        123997
#        141930
#        168203
#        184697
#        211043
#        230130
#        249093
#        263643
#        280093
#        299379
#
# Disc length: 4237 seconds
#
# Revision: 0
# Processed by: cddbd v1.5.2PL0 Copyright (c) Steve Scherf et al.
# Submitted via: ExactAudioCopy v1.3
#
DISCID=da108b10
DTITLE=Noel Cabangon - Byahe
DYEAR=2009
DGENRE=Acoustic
TTITLE0=Tuwing Umuulan At Kapiling Ka
TTITLE1=Anak
TTITLE2=Kahit Na
TTITLE3=Kailan
TTITLE4=Malayo Pa Ang Umaga
TTITLE5=Ikaw Lang Ang Aking Mahal
TTITLE6=Usahay
TTITLE7=Huwag Mong Sabihin
TTITLE8=Sika Laeng Iti Biag
TTITLE9=Paano
TTITLE10=Lagi Na Lang
TTITLE11=Iduyan Mo
TTITLE12=Pumapatak Ang Ulan
TTITLE13=Manila With Gloc-9
TTITLE14=Joey's Theme (Umaga Na Naman)
TTITLE15=Handog
EXTD=
EXTT0=
EXTT1=
EXTT2=
EXTT3=
EXTT4=
EXTT5=
EXTT6=
EXTT7=
EXTT8=
EXTT9=
EXTT10=
EXTT11=
EXTT12=
EXTT13=
EXTT14=
EXTT15=
PLAYORDER=
